<svg width="25" height="25" viewBox="0 0 30 30" fill="none" xmlns="http://www.w3.org/2000/svg">
<path fill-rule="evenodd" clip-rule="evenodd" d="M7.5 6.75C7.5 7.16286 7.16286 7.5 6.75 7.5H0.75C0.337143 7.5 0 7.16286 0 6.75V0.75C0 0.337143 0.337143 0 0.75 0H6.75C7.16286 0 7.5 0.337143 7.5 0.75V6.75Z" fill="#05080D"/>
<path fill-rule="evenodd" clip-rule="evenodd" d="M18.75 6.75C18.75 7.16286 18.4129 7.5 18 7.5H12C11.5871 7.5 11.25 7.16286 11.25 6.75V0.75C11.25 0.337143 11.5871 0 12 0H18C18.4129 0 18.75 0.337143 18.75 0.75V6.75Z" fill="#05080D"/>
<path fill-rule="evenodd" clip-rule="evenodd" d="M30 6.75C30 7.16286 29.6629 7.5 29.25 7.5H23.25C22.8371 7.5 22.5 7.16286 22.5 6.75V0.75C22.5 0.337143 22.8371 0 23.25 0H29.25C29.6629 0 30 0.337143 30 0.75V6.75Z" fill="#05080D"/>
<path fill-rule="evenodd" clip-rule="evenodd" d="M7.5 18C7.5 18.4129 7.16286 18.75 6.75 18.75H0.75C0.337143 18.75 0 18.4129 0 18V12C0 11.5871 0.337143 11.25 0.75 11.25H6.75C7.16286 11.25 7.5 11.5871 7.5 12V18Z" fill="#05080D"/>
<path fill-rule="evenodd" clip-rule="evenodd" d="M18.75 18C18.75 18.4129 18.4129 18.75 18 18.75H12C11.5871 18.75 11.25 18.4129 11.25 18V12C11.25 11.5871 11.5871 11.25 12 11.25H18C18.4129 11.25 18.75 11.5871 18.75 12V18Z" fill="#05080D"/>
<path fill-rule="evenodd" clip-rule="evenodd" d="M30 18C30 18.4129 29.6629 18.75 29.25 18.75H23.25C22.8371 18.75 22.5 18.4129 22.5 18V12C22.5 11.5871 22.8371 11.25 23.25 11.25H29.25C29.6629 11.25 30 11.5871 30 12V18Z" fill="#05080D"/>
<path fill-rule="evenodd" clip-rule="evenodd" d="M7.5 29.25C7.5 29.6629 7.16286 30 6.75 30H0.75C0.337143 30 0 29.6629 0 29.25V23.25C0 22.8371 0.337143 22.5 0.75 22.5H6.75C7.16286 22.5 7.5 22.8371 7.5 23.25V29.25Z" fill="#05080D"/>
<path fill-rule="evenodd" clip-rule="evenodd" d="M18.75 29.25C18.75 29.6629 18.4129 30 18 30H12C11.5871 30 11.25 29.6629 11.25 29.25V23.25C11.25 22.8371 11.5871 22.5 12 22.5H18C18.4129 22.5 18.75 22.8371 18.75 23.25V29.25Z" fill="#05080D"/>
<path fill-rule="evenodd" clip-rule="evenodd" d="M30 29.25C30 29.6629 29.6629 30 29.25 30H23.25C22.8371 30 22.5 29.6629 22.5 29.25V23.25C22.5 22.8371 22.8371 22.5 23.25 22.5H29.25C29.6629 22.5 30 22.8371 30 23.25V29.25Z" fill="#05080D"/>
</svg>
